solid ASCII
  facet normal -1.000000e+00 0.000000e+00 0.000000e+00
    outer loop
      vertex   -1.070000e+01 0.000000e+00 -3.025000e+00
      vertex   -1.070000e+01 0.000000e+00 2.725000e+00
      vertex   -1.070000e+01 6.000000e-01 -3.025000e+00
    endloop
  endfacet
  facet normal -1.000000e+00 0.000000e+00 0.000000e+00
    outer loop
      vertex   -1.070000e+01 6.000000e-01 -3.025000e+00
      vertex   -1.070000e+01 0.000000e+00 2.725000e+00
      vertex   -1.070000e+01 6.000000e-01 2.725000e+00
    endloop
  endfacet
  facet normal 0.000000e+00 1.000000e+00 0.000000e+00
    outer loop
      vertex   -1.070000e+01 6.000000e-01 -3.025000e+00
      vertex   -1.070000e+01 6.000000e-01 2.725000e+00
      vertex   -5.900000e+00 6.000000e-01 -3.025000e+00
    endloop
  endfacet
  facet normal 0.000000e+00 1.000000e+00 -0.000000e+00
    outer loop
      vertex   -5.900000e+00 6.000000e-01 -3.025000e+00
      vertex   -1.070000e+01 6.000000e-01 2.725000e+00
      vertex   -5.900000e+00 6.000000e-01 2.725000e+00
    endloop
  endfacet
  facet normal 0.000000e+00 0.000000e+00 1.000000e+00
    outer loop
      vertex   -1.070000e+01 0.000000e+00 2.725000e+00
      vertex   -5.900000e+00 0.000000e+00 2.725000e+00
      vertex   -1.070000e+01 6.000000e-01 2.725000e+00
    endloop
  endfacet
  facet normal -0.000000e+00 0.000000e+00 1.000000e+00
    outer loop
      vertex   -1.070000e+01 6.000000e-01 2.725000e+00
      vertex   -5.900000e+00 0.000000e+00 2.725000e+00
      vertex   -5.900000e+00 6.000000e-01 2.725000e+00
    endloop
  endfacet
  facet normal -7.071068e-01 9.106536e-16 7.071068e-01
    outer loop
      vertex   -8.250000e+00 -1.293103e+00 5.500000e-01
      vertex   -7.350000e+00 -1.200000e+00 1.450000e+00
      vertex   -8.250000e+00 0.000000e+00 5.500000e-01
    endloop
  endfacet
  facet normal -7.071068e-01 0.000000e+00 7.071068e-01
    outer loop
      vertex   -8.250000e+00 0.000000e+00 5.500000e-01
      vertex   -7.350000e+00 -1.200000e+00 1.450000e+00
      vertex   -7.350000e+00 0.000000e+00 1.450000e+00
    endloop
  endfacet
  facet normal -0.000000e+00 0.000000e+00 1.000000e+00
    outer loop
      vertex   -7.350000e+00 0.000000e+00 1.450000e+00
      vertex   -7.350000e+00 -1.200000e+00 1.450000e+00
      vertex   -5.900000e+00 0.000000e+00 1.450000e+00
    endloop
  endfacet
  facet normal 0.000000e+00 0.000000e+00 1.000000e+00
    outer loop
      vertex   -5.900000e+00 0.000000e+00 1.450000e+00
      vertex   -7.350000e+00 -1.200000e+00 1.450000e+00
      vertex   -3.937401e+00 -1.200000e+00 1.450000e+00
    endloop
  endfacet
  facet normal -0.000000e+00 0.000000e+00 1.000000e+00
    outer loop
      vertex   -5.900000e+00 0.000000e+00 1.450000e+00
      vertex   -3.937401e+00 -1.200000e+00 1.450000e+00
      vertex   -3.937401e+00 0.000000e+00 1.450000e+00
    endloop
  endfacet
  facet normal 1.903514e-16 -9.946918e-01 1.028992e-01
    outer loop
      vertex   -8.250000e+00 -1.293103e+00 5.500000e-01
      vertex   -4.762130e+00 -1.313640e+00 3.514804e-01
      vertex   -7.350000e+00 -1.200000e+00 1.450000e+00
    endloop
  endfacet
  facet normal 1.401169e-16 -9.946918e-01 1.028992e-01
    outer loop
      vertex   -7.350000e+00 -1.200000e+00 1.450000e+00
      vertex   -4.762130e+00 -1.313640e+00 3.514804e-01
      vertex   -4.726047e+00 -1.299472e+00 4.884414e-01
    endloop
  endfacet
  facet normal -1.046302e-16 -9.946918e-01 1.028992e-01
    outer loop
      vertex   -7.350000e+00 -1.200000e+00 1.450000e+00
      vertex   -4.726047e+00 -1.299472e+00 4.884414e-01
      vertex   -4.678352e+00 -1.285676e+00 6.218035e-01
    endloop
  endfacet
  facet normal 3.997328e-16 -9.946918e-01 1.028992e-01
    outer loop
      vertex   -8.250000e+00 -1.500000e+00 -1.450000e+00
      vertex   -4.762130e+00 -1.386360e+00 -3.514804e-01
      vertex   -8.250000e+00 -1.293103e+00 5.500000e-01
    endloop
  endfacet
  facet normal 8.610572e-16 -9.946918e-01 1.028992e-01
    outer loop
      vertex   -8.250000e+00 -1.293103e+00 5.500000e-01
      vertex   -4.762130e+00 -1.386360e+00 -3.514804e-01
      vertex   -4.786333e+00 -1.371924e+00 -2.119295e-01
    endloop
  endfacet
  facet normal -8.636363e-17 -9.946918e-01 1.028992e-01
    outer loop
      vertex   -8.250000e+00 -1.293103e+00 5.500000e-01
      vertex   -4.786333e+00 -1.371924e+00 -2.119295e-01
      vertex   -4.798480e+00 -1.357326e+00 -7.081711e-02
    endloop
  endfacet
  facet normal 0.000000e+00 -9.946918e-01 1.028992e-01
    outer loop
      vertex   -3.937401e+00 -1.500000e+00 -1.450000e+00
      vertex   -4.058852e+00 -1.492462e+00 -1.377131e+00
      vertex   -8.250000e+00 -1.500000e+00 -1.450000e+00
    endloop
  endfacet
  facet normal 7.397556e-16 -9.946918e-01 1.028992e-01
    outer loop
      vertex   -8.250000e+00 -1.500000e+00 -1.450000e+00
      vertex   -4.058852e+00 -1.492462e+00 -1.377131e+00
      vertex   -4.173606e+00 -1.483874e+00 -1.294114e+00
    endloop
  endfacet
  facet normal 6.613164e-16 -9.946918e-01 1.028992e-01
    outer loop
      vertex   -8.250000e+00 -1.500000e+00 -1.450000e+00
      vertex   -4.173606e+00 -1.483874e+00 -1.294114e+00
      vertex   -4.280818e+00 -1.474300e+00 -1.201562e+00
    endloop
  endfacet
  facet normal 7.171764e-16 -9.946918e-01 1.028992e-01
    outer loop
      vertex   -4.280818e+00 -1.474300e+00 -1.201562e+00
      vertex   -4.379697e+00 -1.463809e+00 -1.100157e+00
      vertex   -8.250000e+00 -1.500000e+00 -1.450000e+00
    endloop
  endfacet
  facet normal 8.262469e-16 -9.946918e-01 1.028992e-01
    outer loop
      vertex   -8.250000e+00 -1.500000e+00 -1.450000e+00
      vertex   -4.379697e+00 -1.463809e+00 -1.100157e+00
      vertex   -4.469516e+00 -1.452481e+00 -9.906449e-01
    endloop
  endfacet
  facet normal 5.698872e-16 -9.946918e-01 1.028992e-01
    outer loop
      vertex   -8.250000e+00 -1.500000e+00 -1.450000e+00
      vertex   -4.469516e+00 -1.452481e+00 -9.906449e-01
      vertex   -4.549612e+00 -1.440397e+00 -8.738337e-01
    endloop
  endfacet
  facet normal 4.676437e-16 -9.946918e-01 1.028992e-01
    outer loop
      vertex   -4.549612e+00 -1.440397e+00 -8.738337e-01
      vertex   -4.619396e+00 -1.427647e+00 -7.505839e-01
      vertex   -8.250000e+00 -1.500000e+00 -1.450000e+00
    endloop
  endfacet
  facet normal 9.224711e-16 -9.946918e-01 1.028992e-01
    outer loop
      vertex   -8.250000e+00 -1.500000e+00 -1.450000e+00
      vertex   -4.619396e+00 -1.427647e+00 -7.505839e-01
      vertex   -4.678352e+00 -1.414324e+00 -6.218035e-01
    endloop
  endfacet
  facet normal 5.887496e-16 -9.946918e-01 1.028992e-01
    outer loop
      vertex   -8.250000e+00 -1.500000e+00 -1.450000e+00
      vertex   -4.678352e+00 -1.414324e+00 -6.218035e-01
      vertex   -4.726047e+00 -1.400528e+00 -4.884414e-01
    endloop
  endfacet
  facet normal 1.057310e-15 -9.946918e-01 1.028992e-01
    outer loop
      vertex   -4.726047e+00 -1.400528e+00 -4.884414e-01
      vertex   -4.762130e+00 -1.386360e+00 -3.514804e-01
      vertex   -8.250000e+00 -1.500000e+00 -1.450000e+00
    endloop
  endfacet
  facet normal 2.506101e-16 -9.946918e-01 1.028992e-01
    outer loop
      vertex   -4.798480e+00 -1.357326e+00 -7.081711e-02
      vertex   -4.798480e+00 -1.342674e+00 7.081711e-02
      vertex   -8.250000e+00 -1.293103e+00 5.500000e-01
    endloop
  endfacet
  facet normal 2.450654e-16 -9.946918e-01 1.028992e-01
    outer loop
      vertex   -8.250000e+00 -1.293103e+00 5.500000e-01
      vertex   -4.798480e+00 -1.342674e+00 7.081711e-02
      vertex   -4.786333e+00 -1.328076e+00 2.119295e-01
    endloop
  endfacet
  facet normal 1.685004e-16 -9.946918e-01 1.028992e-01
    outer loop
      vertex   -8.250000e+00 -1.293103e+00 5.500000e-01
      vertex   -4.786333e+00 -1.328076e+00 2.119295e-01
      vertex   -4.762130e+00 -1.313640e+00 3.514804e-01
    endloop
  endfacet
  facet normal 6.763568e-16 -9.946918e-01 1.028992e-01
    outer loop
      vertex   -4.678352e+00 -1.285676e+00 6.218035e-01
      vertex   -4.619396e+00 -1.272353e+00 7.505839e-01
      vertex   -7.350000e+00 -1.200000e+00 1.450000e+00
    endloop
  endfacet
  facet normal -2.865752e-16 -9.946918e-01 1.028992e-01
    outer loop
      vertex   -7.350000e+00 -1.200000e+00 1.450000e+00
      vertex   -4.619396e+00 -1.272353e+00 7.505839e-01
      vertex   -4.549612e+00 -1.259603e+00 8.738337e-01
    endloop
  endfacet
  facet normal 6.286951e-16 -9.946918e-01 1.028992e-01
    outer loop
      vertex   -7.350000e+00 -1.200000e+00 1.450000e+00
      vertex   -4.549612e+00 -1.259603e+00 8.738337e-01
      vertex   -4.469516e+00 -1.247519e+00 9.906449e-01
    endloop
  endfacet
  facet normal 2.321935e-16 -9.946918e-01 1.028992e-01
    outer loop
      vertex   -4.469516e+00 -1.247519e+00 9.906449e-01
      vertex   -4.379697e+00 -1.236191e+00 1.100157e+00
      vertex   -7.350000e+00 -1.200000e+00 1.450000e+00
    endloop
  endfacet
  facet normal 1.490183e-16 -9.946918e-01 1.028992e-01
    outer loop
      vertex   -7.350000e+00 -1.200000e+00 1.450000e+00
      vertex   -4.379697e+00 -1.236191e+00 1.100157e+00
      vertex   -4.280818e+00 -1.225700e+00 1.201562e+00
    endloop
  endfacet
  facet normal 2.277033e-16 -9.946918e-01 1.028992e-01
    outer loop
      vertex   -7.350000e+00 -1.200000e+00 1.450000e+00
      vertex   -4.280818e+00 -1.225700e+00 1.201562e+00
      vertex   -4.173606e+00 -1.216126e+00 1.294114e+00
    endloop
  endfacet
  facet normal 2.274996e-16 -9.946918e-01 1.028992e-01
    outer loop
      vertex   -4.173606e+00 -1.216126e+00 1.294114e+00
      vertex   -4.058852e+00 -1.207538e+00 1.377131e+00
      vertex   -7.350000e+00 -1.200000e+00 1.450000e+00
    endloop
  endfacet
  facet normal 1.941622e-16 -9.946918e-01 1.028992e-01
    outer loop
      vertex   -7.350000e+00 -1.200000e+00 1.450000e+00
      vertex   -4.058852e+00 -1.207538e+00 1.377131e+00
      vertex   -3.937401e+00 -1.200000e+00 1.450000e+00
    endloop
  endfacet
  facet normal -1.000000e+00 1.373716e-15 0.000000e+00
    outer loop
      vertex   -8.250000e+00 0.000000e+00 5.500000e-01
      vertex   -8.250000e+00 0.000000e+00 -1.450000e+00
      vertex   -8.250000e+00 -1.293103e+00 5.500000e-01
    endloop
  endfacet
  facet normal -1.000000e+00 0.000000e+00 -8.881784e-16
    outer loop
      vertex   -8.250000e+00 -1.293103e+00 5.500000e-01
      vertex   -8.250000e+00 0.000000e+00 -1.450000e+00
      vertex   -8.250000e+00 -1.500000e+00 -1.450000e+00
    endloop
  endfacet
  facet normal 5.144900e-01 0.000000e+00 -8.574964e-01
    outer loop
      vertex   -3.937401e+00 0.000000e+00 1.450000e+00
      vertex   -3.937401e+00 -1.200000e+00 1.450000e+00
      vertex   -4.058852e+00 0.000000e+00 1.377131e+00
    endloop
  endfacet
  facet normal 5.144900e-01 0.000000e+00 -8.574964e-01
    outer loop
      vertex   -4.058852e+00 0.000000e+00 1.377131e+00
      vertex   -3.937401e+00 -1.200000e+00 1.450000e+00
      vertex   -4.058852e+00 -1.207538e+00 1.377131e+00
    endloop
  endfacet
  facet normal 5.861332e-01 0.000000e+00 -8.102147e-01
    outer loop
      vertex   -4.058852e+00 0.000000e+00 1.377131e+00
      vertex   -4.058852e+00 -1.207538e+00 1.377131e+00
      vertex   -4.173606e+00 0.000000e+00 1.294114e+00
    endloop
  endfacet
  facet normal 5.861332e-01 0.000000e+00 -8.102147e-01
    outer loop
      vertex   -4.173606e+00 0.000000e+00 1.294114e+00
      vertex   -4.058852e+00 -1.207538e+00 1.377131e+00
      vertex   -4.173606e+00 -1.216126e+00 1.294114e+00
    endloop
  endfacet
  facet normal 6.534577e-01 0.000000e+00 -7.569630e-01
    outer loop
      vertex   -4.173606e+00 0.000000e+00 1.294114e+00
      vertex   -4.173606e+00 -1.216126e+00 1.294114e+00
      vertex   -4.280818e+00 0.000000e+00 1.201562e+00
    endloop
  endfacet
  facet normal 6.534577e-01 0.000000e+00 -7.569630e-01
    outer loop
      vertex   -4.280818e+00 0.000000e+00 1.201562e+00
      vertex   -4.173606e+00 -1.216126e+00 1.294114e+00
      vertex   -4.280818e+00 -1.225700e+00 1.201562e+00
    endloop
  endfacet
  facet normal 7.159673e-01 0.000000e+00 -6.981338e-01
    outer loop
      vertex   -4.280818e+00 0.000000e+00 1.201562e+00
      vertex   -4.280818e+00 -1.225700e+00 1.201562e+00
      vertex   -4.379697e+00 0.000000e+00 1.100157e+00
    endloop
  endfacet
  facet normal 7.159673e-01 -2.507976e-16 -6.981338e-01
    outer loop
      vertex   -4.379697e+00 0.000000e+00 1.100157e+00
      vertex   -4.280818e+00 -1.225700e+00 1.201562e+00
      vertex   -4.379697e+00 -1.236191e+00 1.100157e+00
    endloop
  endfacet
  facet normal 7.732014e-01 -2.278159e-16 -6.341606e-01
    outer loop
      vertex   -4.379697e+00 0.000000e+00 1.100157e+00
      vertex   -4.379697e+00 -1.236191e+00 1.100157e+00
      vertex   -4.469516e+00 0.000000e+00 9.906449e-01
    endloop
  endfacet
  facet normal 7.732014e-01 0.000000e+00 -6.341606e-01
    outer loop
      vertex   -4.469516e+00 0.000000e+00 9.906449e-01
      vertex   -4.379697e+00 -1.236191e+00 1.100157e+00
      vertex   -4.469516e+00 -1.247519e+00 9.906449e-01
    endloop
  endfacet
  facet normal 8.247383e-01 0.000000e+00 -5.655146e-01
    outer loop
      vertex   -4.469516e+00 0.000000e+00 9.906449e-01
      vertex   -4.469516e+00 -1.247519e+00 9.906449e-01
      vertex   -4.549612e+00 0.000000e+00 8.738337e-01
    endloop
  endfacet
  facet normal 8.247383e-01 -3.489139e-16 -5.655146e-01
    outer loop
      vertex   -4.549612e+00 0.000000e+00 8.738337e-01
      vertex   -4.469516e+00 -1.247519e+00 9.906449e-01
      vertex   -4.549612e+00 -1.259603e+00 8.738337e-01
    endloop
  endfacet
  facet normal 8.701982e-01 -3.039895e-16 -4.927018e-01
    outer loop
      vertex   -4.549612e+00 0.000000e+00 8.738337e-01
      vertex   -4.549612e+00 -1.259603e+00 8.738337e-01
      vertex   -4.619396e+00 0.000000e+00 7.505839e-01
    endloop
  endfacet
  facet normal 8.701982e-01 2.635150e-16 -4.927018e-01
    outer loop
      vertex   -4.619396e+00 0.000000e+00 7.505839e-01
      vertex   -4.549612e+00 -1.259603e+00 8.738337e-01
      vertex   -4.619396e+00 -1.272353e+00 7.505839e-01
    endloop
  endfacet
  facet normal 9.092463e-01 3.441348e-16 -4.162585e-01
    outer loop
      vertex   -4.619396e+00 0.000000e+00 7.505839e-01
      vertex   -4.619396e+00 -1.272353e+00 7.505839e-01
      vertex   -4.678352e+00 0.000000e+00 6.218035e-01
    endloop
  endfacet
  facet normal 9.092463e-01 0.000000e+00 -4.162585e-01
    outer loop
      vertex   -4.678352e+00 0.000000e+00 6.218035e-01
      vertex   -4.619396e+00 -1.272353e+00 7.505839e-01
      vertex   -4.678352e+00 -1.285676e+00 6.218035e-01
    endloop
  endfacet
  facet normal 9.415948e-01 0.000000e+00 -3.367481e-01
    outer loop
      vertex   -4.678352e+00 0.000000e+00 6.218035e-01
      vertex   -4.678352e+00 -1.285676e+00 6.218035e-01
      vertex   -4.726047e+00 0.000000e+00 4.884414e-01
    endloop
  endfacet
  facet normal 9.415948e-01 -1.006970e-16 -3.367481e-01
    outer loop
      vertex   -4.726047e+00 0.000000e+00 4.884414e-01
      vertex   -4.678352e+00 -1.285676e+00 6.218035e-01
      vertex   -4.726047e+00 -1.299472e+00 4.884414e-01
    endloop
  endfacet
  facet normal 9.670052e-01 -7.617926e-17 -2.547565e-01
    outer loop
      vertex   -4.726047e+00 0.000000e+00 4.884414e-01
      vertex   -4.726047e+00 -1.299472e+00 4.884414e-01
      vertex   -4.762130e+00 0.000000e+00 3.514804e-01
    endloop
  endfacet
  facet normal 9.670052e-01 0.000000e+00 -2.547565e-01
    outer loop
      vertex   -4.762130e+00 0.000000e+00 3.514804e-01
      vertex   -4.726047e+00 -1.299472e+00 4.884414e-01
      vertex   -4.762130e+00 -1.313640e+00 3.514804e-01
    endloop
  endfacet
  facet normal 9.852905e-01 0.000000e+00 -1.708877e-01
    outer loop
      vertex   -4.762130e+00 0.000000e+00 3.514804e-01
      vertex   -4.762130e+00 -1.313640e+00 3.514804e-01
      vertex   -4.786333e+00 0.000000e+00 2.119295e-01
    endloop
  endfacet
  facet normal 9.852905e-01 -3.571397e-18 -1.708877e-01
    outer loop
      vertex   -4.786333e+00 0.000000e+00 2.119295e-01
      vertex   -4.762130e+00 -1.313640e+00 3.514804e-01
      vertex   -4.786333e+00 -1.328076e+00 2.119295e-01
    endloop
  endfacet
  facet normal 9.963158e-01 -1.792302e-18 -8.575983e-02
    outer loop
      vertex   -4.786333e+00 0.000000e+00 2.119295e-01
      vertex   -4.786333e+00 -1.328076e+00 2.119295e-01
      vertex   -4.798480e+00 0.000000e+00 7.081711e-02
    endloop
  endfacet
  facet normal 9.963158e-01 -1.772815e-18 -8.575983e-02
    outer loop
      vertex   -4.798480e+00 0.000000e+00 7.081711e-02
      vertex   -4.786333e+00 -1.328076e+00 2.119295e-01
      vertex   -4.798480e+00 -1.342674e+00 7.081711e-02
    endloop
  endfacet
  facet normal 1.000000e+00 0.000000e+00 0.000000e+00
    outer loop
      vertex   -4.798480e+00 0.000000e+00 7.081711e-02
      vertex   -4.798480e+00 -1.342674e+00 7.081711e-02
      vertex   -4.798480e+00 0.000000e+00 -7.081711e-02
    endloop
  endfacet
  facet normal 1.000000e+00 0.000000e+00 0.000000e+00
    outer loop
      vertex   -4.798480e+00 0.000000e+00 -7.081711e-02
      vertex   -4.798480e+00 -1.342674e+00 7.081711e-02
      vertex   -4.798480e+00 -1.357326e+00 -7.081711e-02
    endloop
  endfacet
  facet normal 9.963158e-01 1.753679e-18 8.575983e-02
    outer loop
      vertex   -4.798480e+00 0.000000e+00 -7.081711e-02
      vertex   -4.798480e+00 -1.357326e+00 -7.081711e-02
      vertex   -4.786333e+00 0.000000e+00 -2.119295e-01
    endloop
  endfacet
  facet normal 9.963158e-01 -2.082022e-17 8.575983e-02
    outer loop
      vertex   -4.786333e+00 0.000000e+00 -2.119295e-01
      vertex   -4.798480e+00 -1.357326e+00 -7.081711e-02
      vertex   -4.786333e+00 -1.371924e+00 -2.119295e-01
    endloop
  endfacet
  facet normal 9.852905e-01 -4.148704e-17 1.708877e-01
    outer loop
      vertex   -4.786333e+00 0.000000e+00 -2.119295e-01
      vertex   -4.786333e+00 -1.371924e+00 -2.119295e-01
      vertex   -4.762130e+00 0.000000e+00 -3.514804e-01
    endloop
  endfacet
  facet normal 9.852905e-01 0.000000e+00 1.708877e-01
    outer loop
      vertex   -4.762130e+00 0.000000e+00 -3.514804e-01
      vertex   -4.786333e+00 -1.371924e+00 -2.119295e-01
      vertex   -4.762130e+00 -1.386360e+00 -3.514804e-01
    endloop
  endfacet
  facet normal 9.670052e-01 0.000000e+00 2.547565e-01
    outer loop
      vertex   -4.762130e+00 0.000000e+00 -3.514804e-01
      vertex   -4.762130e+00 -1.386360e+00 -3.514804e-01
      vertex   -4.726047e+00 0.000000e+00 -4.884414e-01
    endloop
  endfacet
  facet normal 9.670052e-01 0.000000e+00 2.547565e-01
    outer loop
      vertex   -4.726047e+00 0.000000e+00 -4.884414e-01
      vertex   -4.762130e+00 -1.386360e+00 -3.514804e-01
      vertex   -4.726047e+00 -1.400528e+00 -4.884414e-01
    endloop
  endfacet
  facet normal 9.415948e-01 0.000000e+00 3.367481e-01
    outer loop
      vertex   -4.726047e+00 0.000000e+00 -4.884414e-01
      vertex   -4.726047e+00 -1.400528e+00 -4.884414e-01
      vertex   -4.678352e+00 0.000000e+00 -6.218035e-01
    endloop
  endfacet
  facet normal 9.415948e-01 0.000000e+00 3.367481e-01
    outer loop
      vertex   -4.678352e+00 0.000000e+00 -6.218035e-01
      vertex   -4.726047e+00 -1.400528e+00 -4.884414e-01
      vertex   -4.678352e+00 -1.414324e+00 -6.218035e-01
    endloop
  endfacet
  facet normal 9.092463e-01 0.000000e+00 4.162585e-01
    outer loop
      vertex   -4.678352e+00 0.000000e+00 -6.218035e-01
      vertex   -4.678352e+00 -1.414324e+00 -6.218035e-01
      vertex   -4.619396e+00 0.000000e+00 -7.505839e-01
    endloop
  endfacet
  facet normal 9.092463e-01 0.000000e+00 4.162585e-01
    outer loop
      vertex   -4.619396e+00 0.000000e+00 -7.505839e-01
      vertex   -4.678352e+00 -1.414324e+00 -6.218035e-01
      vertex   -4.619396e+00 -1.427647e+00 -7.505839e-01
    endloop
  endfacet
  facet normal 8.701982e-01 0.000000e+00 4.927018e-01
    outer loop
      vertex   -4.619396e+00 0.000000e+00 -7.505839e-01
      vertex   -4.619396e+00 -1.427647e+00 -7.505839e-01
      vertex   -4.549612e+00 0.000000e+00 -8.738337e-01
    endloop
  endfacet
  facet normal 8.701982e-01 -1.139288e-16 4.927018e-01
    outer loop
      vertex   -4.549612e+00 0.000000e+00 -8.738337e-01
      vertex   -4.619396e+00 -1.427647e+00 -7.505839e-01
      vertex   -4.549612e+00 -1.440397e+00 -8.738337e-01
    endloop
  endfacet
  facet normal 8.247383e-01 -1.307655e-16 5.655146e-01
    outer loop
      vertex   -4.549612e+00 0.000000e+00 -8.738337e-01
      vertex   -4.549612e+00 -1.440397e+00 -8.738337e-01
      vertex   -4.469516e+00 0.000000e+00 -9.906449e-01
    endloop
  endfacet
  facet normal 8.247383e-01 -8.645174e-17 5.655146e-01
    outer loop
      vertex   -4.469516e+00 0.000000e+00 -9.906449e-01
      vertex   -4.549612e+00 -1.440397e+00 -8.738337e-01
      vertex   -4.469516e+00 -1.452481e+00 -9.906449e-01
    endloop
  endfacet
  facet normal 7.732014e-01 -9.694583e-17 6.341606e-01
    outer loop
      vertex   -4.469516e+00 0.000000e+00 -9.906449e-01
      vertex   -4.469516e+00 -1.452481e+00 -9.906449e-01
      vertex   -4.379697e+00 0.000000e+00 -1.100157e+00
    endloop
  endfacet
  facet normal 7.732014e-01 -9.619554e-17 6.341606e-01
    outer loop
      vertex   -4.379697e+00 0.000000e+00 -1.100157e+00
      vertex   -4.469516e+00 -1.452481e+00 -9.906449e-01
      vertex   -4.379697e+00 -1.463809e+00 -1.100157e+00
    endloop
  endfacet
  facet normal 7.159673e-01 -1.058996e-16 6.981338e-01
    outer loop
      vertex   -4.379697e+00 0.000000e+00 -1.100157e+00
      vertex   -4.379697e+00 -1.463809e+00 -1.100157e+00
      vertex   -4.280818e+00 0.000000e+00 -1.201562e+00
    endloop
  endfacet
  facet normal 7.159673e-01 0.000000e+00 6.981338e-01
    outer loop
      vertex   -4.280818e+00 0.000000e+00 -1.201562e+00
      vertex   -4.379697e+00 -1.463809e+00 -1.100157e+00
      vertex   -4.280818e+00 -1.474300e+00 -1.201562e+00
    endloop
  endfacet
  facet normal 6.534577e-01 0.000000e+00 7.569630e-01
    outer loop
      vertex   -4.280818e+00 0.000000e+00 -1.201562e+00
      vertex   -4.280818e+00 -1.474300e+00 -1.201562e+00
      vertex   -4.173606e+00 0.000000e+00 -1.294114e+00
    endloop
  endfacet
  facet normal 6.534577e-01 0.000000e+00 7.569630e-01
    outer loop
      vertex   -4.173606e+00 0.000000e+00 -1.294114e+00
      vertex   -4.280818e+00 -1.474300e+00 -1.201562e+00
      vertex   -4.173606e+00 -1.483874e+00 -1.294114e+00
    endloop
  endfacet
  facet normal 5.861332e-01 0.000000e+00 8.102147e-01
    outer loop
      vertex   -4.173606e+00 0.000000e+00 -1.294114e+00
      vertex   -4.173606e+00 -1.483874e+00 -1.294114e+00
      vertex   -4.058852e+00 0.000000e+00 -1.377131e+00
    endloop
  endfacet
  facet normal 5.861332e-01 0.000000e+00 8.102147e-01
    outer loop
      vertex   -4.058852e+00 0.000000e+00 -1.377131e+00
      vertex   -4.173606e+00 -1.483874e+00 -1.294114e+00
      vertex   -4.058852e+00 -1.492462e+00 -1.377131e+00
    endloop
  endfacet
  facet normal 5.144900e-01 0.000000e+00 8.574964e-01
    outer loop
      vertex   -4.058852e+00 0.000000e+00 -1.377131e+00
      vertex   -4.058852e+00 -1.492462e+00 -1.377131e+00
      vertex   -3.937401e+00 0.000000e+00 -1.450000e+00
    endloop
  endfacet
  facet normal 5.144900e-01 0.000000e+00 8.574964e-01
    outer loop
      vertex   -3.937401e+00 0.000000e+00 -1.450000e+00
      vertex   -4.058852e+00 -1.492462e+00 -1.377131e+00
      vertex   -3.937401e+00 -1.500000e+00 -1.450000e+00
    endloop
  endfacet
  facet normal 0.000000e+00 0.000000e+00 -1.000000e+00
    outer loop
      vertex   -8.250000e+00 0.000000e+00 -1.450000e+00
      vertex   -5.900000e+00 0.000000e+00 -1.450000e+00
      vertex   -8.250000e+00 -1.500000e+00 -1.450000e+00
    endloop
  endfacet
  facet normal 0.000000e+00 0.000000e+00 -1.000000e+00
    outer loop
      vertex   -8.250000e+00 -1.500000e+00 -1.450000e+00
      vertex   -5.900000e+00 0.000000e+00 -1.450000e+00
      vertex   -3.937401e+00 -1.500000e+00 -1.450000e+00
    endloop
  endfacet
  facet normal 0.000000e+00 0.000000e+00 -1.000000e+00
    outer loop
      vertex   -3.937401e+00 -1.500000e+00 -1.450000e+00
      vertex   -5.900000e+00 0.000000e+00 -1.450000e+00
      vertex   -3.937401e+00 0.000000e+00 -1.450000e+00
    endloop
  endfacet
  facet normal 0.000000e+00 1.000000e+00 0.000000e+00
    outer loop
      vertex   -5.900000e+00 0.000000e+00 1.450000e+00
      vertex   -4.798480e+00 0.000000e+00 -7.081711e-02
      vertex   -5.900000e+00 0.000000e+00 -1.450000e+00
    endloop
  endfacet
  facet normal 0.000000e+00 1.000000e+00 0.000000e+00
    outer loop
      vertex   -5.900000e+00 0.000000e+00 -1.450000e+00
      vertex   -4.798480e+00 0.000000e+00 -7.081711e-02
      vertex   -4.786333e+00 0.000000e+00 -2.119295e-01
    endloop
  endfacet
  facet normal 0.000000e+00 1.000000e+00 0.000000e+00
    outer loop
      vertex   -5.900000e+00 0.000000e+00 -1.450000e+00
      vertex   -4.786333e+00 0.000000e+00 -2.119295e-01
      vertex   -4.762130e+00 0.000000e+00 -3.514804e-01
    endloop
  endfacet
  facet normal 0.000000e+00 1.000000e+00 0.000000e+00
    outer loop
      vertex   -3.937401e+00 0.000000e+00 1.450000e+00
      vertex   -4.058852e+00 0.000000e+00 1.377131e+00
      vertex   -5.900000e+00 0.000000e+00 1.450000e+00
    endloop
  endfacet
  facet normal 0.000000e+00 1.000000e+00 0.000000e+00
    outer loop
      vertex   -5.900000e+00 0.000000e+00 1.450000e+00
      vertex   -4.058852e+00 0.000000e+00 1.377131e+00
      vertex   -4.173606e+00 0.000000e+00 1.294114e+00
    endloop
  endfacet
  facet normal 0.000000e+00 1.000000e+00 0.000000e+00
    outer loop
      vertex   -5.900000e+00 0.000000e+00 1.450000e+00
      vertex   -4.173606e+00 0.000000e+00 1.294114e+00
      vertex   -4.280818e+00 0.000000e+00 1.201562e+00
    endloop
  endfacet
  facet normal 0.000000e+00 1.000000e+00 0.000000e+00
    outer loop
      vertex   -4.280818e+00 0.000000e+00 1.201562e+00
      vertex   -4.379697e+00 0.000000e+00 1.100157e+00
      vertex   -5.900000e+00 0.000000e+00 1.450000e+00
    endloop
  endfacet
  facet normal 0.000000e+00 1.000000e+00 0.000000e+00
    outer loop
      vertex   -5.900000e+00 0.000000e+00 1.450000e+00
      vertex   -4.379697e+00 0.000000e+00 1.100157e+00
      vertex   -4.469516e+00 0.000000e+00 9.906449e-01
    endloop
  endfacet
  facet normal 0.000000e+00 1.000000e+00 0.000000e+00
    outer loop
      vertex   -5.900000e+00 0.000000e+00 1.450000e+00
      vertex   -4.469516e+00 0.000000e+00 9.906449e-01
      vertex   -4.549612e+00 0.000000e+00 8.738337e-01
    endloop
  endfacet
  facet normal 0.000000e+00 1.000000e+00 0.000000e+00
    outer loop
      vertex   -4.549612e+00 0.000000e+00 8.738337e-01
      vertex   -4.619396e+00 0.000000e+00 7.505839e-01
      vertex   -5.900000e+00 0.000000e+00 1.450000e+00
    endloop
  endfacet
  facet normal 0.000000e+00 1.000000e+00 0.000000e+00
    outer loop
      vertex   -5.900000e+00 0.000000e+00 1.450000e+00
      vertex   -4.619396e+00 0.000000e+00 7.505839e-01
      vertex   -4.678352e+00 0.000000e+00 6.218035e-01
    endloop
  endfacet
  facet normal 0.000000e+00 1.000000e+00 0.000000e+00
    outer loop
      vertex   -5.900000e+00 0.000000e+00 1.450000e+00
      vertex   -4.678352e+00 0.000000e+00 6.218035e-01
      vertex   -4.726047e+00 0.000000e+00 4.884414e-01
    endloop
  endfacet
  facet normal 0.000000e+00 1.000000e+00 0.000000e+00
    outer loop
      vertex   -4.726047e+00 0.000000e+00 4.884414e-01
      vertex   -4.762130e+00 0.000000e+00 3.514804e-01
      vertex   -5.900000e+00 0.000000e+00 1.450000e+00
    endloop
  endfacet
  facet normal 0.000000e+00 1.000000e+00 0.000000e+00
    outer loop
      vertex   -5.900000e+00 0.000000e+00 1.450000e+00
      vertex   -4.762130e+00 0.000000e+00 3.514804e-01
      vertex   -4.786333e+00 0.000000e+00 2.119295e-01
    endloop
  endfacet
  facet normal 0.000000e+00 1.000000e+00 0.000000e+00
    outer loop
      vertex   -5.900000e+00 0.000000e+00 1.450000e+00
      vertex   -4.786333e+00 0.000000e+00 2.119295e-01
      vertex   -4.798480e+00 0.000000e+00 7.081711e-02
    endloop
  endfacet
  facet normal 0.000000e+00 1.000000e+00 0.000000e+00
    outer loop
      vertex   -4.798480e+00 0.000000e+00 7.081711e-02
      vertex   -4.798480e+00 0.000000e+00 -7.081711e-02
      vertex   -5.900000e+00 0.000000e+00 1.450000e+00
    endloop
  endfacet
  facet normal 0.000000e+00 1.000000e+00 0.000000e+00
    outer loop
      vertex   -4.762130e+00 0.000000e+00 -3.514804e-01
      vertex   -4.726047e+00 0.000000e+00 -4.884414e-01
      vertex   -5.900000e+00 0.000000e+00 -1.450000e+00
    endloop
  endfacet
  facet normal 0.000000e+00 1.000000e+00 0.000000e+00
    outer loop
      vertex   -5.900000e+00 0.000000e+00 -1.450000e+00
      vertex   -4.726047e+00 0.000000e+00 -4.884414e-01
      vertex   -4.678352e+00 0.000000e+00 -6.218035e-01
    endloop
  endfacet
  facet normal 0.000000e+00 1.000000e+00 0.000000e+00
    outer loop
      vertex   -5.900000e+00 0.000000e+00 -1.450000e+00
      vertex   -4.678352e+00 0.000000e+00 -6.218035e-01
      vertex   -4.619396e+00 0.000000e+00 -7.505839e-01
    endloop
  endfacet
  facet normal 0.000000e+00 1.000000e+00 0.000000e+00
    outer loop
      vertex   -4.619396e+00 0.000000e+00 -7.505839e-01
      vertex   -4.549612e+00 0.000000e+00 -8.738337e-01
      vertex   -5.900000e+00 0.000000e+00 -1.450000e+00
    endloop
  endfacet
  facet normal 0.000000e+00 1.000000e+00 0.000000e+00
    outer loop
      vertex   -5.900000e+00 0.000000e+00 -1.450000e+00
      vertex   -4.549612e+00 0.000000e+00 -8.738337e-01
      vertex   -4.469516e+00 0.000000e+00 -9.906449e-01
    endloop
  endfacet
  facet normal 0.000000e+00 1.000000e+00 0.000000e+00
    outer loop
      vertex   -5.900000e+00 0.000000e+00 -1.450000e+00
      vertex   -4.469516e+00 0.000000e+00 -9.906449e-01
      vertex   -4.379697e+00 0.000000e+00 -1.100157e+00
    endloop
  endfacet
  facet normal 0.000000e+00 1.000000e+00 0.000000e+00
    outer loop
      vertex   -4.379697e+00 0.000000e+00 -1.100157e+00
      vertex   -4.280818e+00 0.000000e+00 -1.201562e+00
      vertex   -5.900000e+00 0.000000e+00 -1.450000e+00
    endloop
  endfacet
  facet normal 0.000000e+00 1.000000e+00 0.000000e+00
    outer loop
      vertex   -5.900000e+00 0.000000e+00 -1.450000e+00
      vertex   -4.280818e+00 0.000000e+00 -1.201562e+00
      vertex   -4.173606e+00 0.000000e+00 -1.294114e+00
    endloop
  endfacet
  facet normal 0.000000e+00 1.000000e+00 0.000000e+00
    outer loop
      vertex   -5.900000e+00 0.000000e+00 -1.450000e+00
      vertex   -4.173606e+00 0.000000e+00 -1.294114e+00
      vertex   -4.058852e+00 0.000000e+00 -1.377131e+00
    endloop
  endfacet
  facet normal 0.000000e+00 1.000000e+00 0.000000e+00
    outer loop
      vertex   -4.058852e+00 0.000000e+00 -1.377131e+00
      vertex   -3.937401e+00 0.000000e+00 -1.450000e+00
      vertex   -5.900000e+00 0.000000e+00 -1.450000e+00
    endloop
  endfacet
  facet normal 0.000000e+00 0.000000e+00 -1.000000e+00
    outer loop
      vertex   -1.070000e+01 6.000000e-01 -3.025000e+00
      vertex   -5.900000e+00 6.000000e-01 -3.025000e+00
      vertex   -1.070000e+01 0.000000e+00 -3.025000e+00
    endloop
  endfacet
  facet normal 0.000000e+00 0.000000e+00 -1.000000e+00
    outer loop
      vertex   -1.070000e+01 0.000000e+00 -3.025000e+00
      vertex   -5.900000e+00 6.000000e-01 -3.025000e+00
      vertex   -5.900000e+00 0.000000e+00 -3.025000e+00
    endloop
  endfacet
  facet normal 1.000000e+00 -0.000000e+00 0.000000e+00
    outer loop
      vertex   -5.900000e+00 0.000000e+00 2.725000e+00
      vertex   -5.900000e+00 0.000000e+00 1.450000e+00
      vertex   -5.900000e+00 6.000000e-01 2.725000e+00
    endloop
  endfacet
  facet normal 1.000000e+00 0.000000e+00 0.000000e+00
    outer loop
      vertex   -5.900000e+00 6.000000e-01 2.725000e+00
      vertex   -5.900000e+00 0.000000e+00 1.450000e+00
      vertex   -5.900000e+00 0.000000e+00 -1.450000e+00
    endloop
  endfacet
  facet normal 1.000000e+00 0.000000e+00 0.000000e+00
    outer loop
      vertex   -5.900000e+00 6.000000e-01 2.725000e+00
      vertex   -5.900000e+00 0.000000e+00 -1.450000e+00
      vertex   -5.900000e+00 6.000000e-01 -3.025000e+00
    endloop
  endfacet
  facet normal 1.000000e+00 0.000000e+00 0.000000e+00
    outer loop
      vertex   -5.900000e+00 6.000000e-01 -3.025000e+00
      vertex   -5.900000e+00 0.000000e+00 -1.450000e+00
      vertex   -5.900000e+00 0.000000e+00 -3.025000e+00
    endloop
  endfacet
  facet normal 0.000000e+00 -1.000000e+00 0.000000e+00
    outer loop
      vertex   -1.070000e+01 0.000000e+00 -3.025000e+00
      vertex   -8.250000e+00 0.000000e+00 5.500000e-01
      vertex   -1.070000e+01 0.000000e+00 2.725000e+00
    endloop
  endfacet
  facet normal 0.000000e+00 -1.000000e+00 0.000000e+00
    outer loop
      vertex   -1.070000e+01 0.000000e+00 2.725000e+00
      vertex   -8.250000e+00 0.000000e+00 5.500000e-01
      vertex   -7.350000e+00 0.000000e+00 1.450000e+00
    endloop
  endfacet
  facet normal 0.000000e+00 -1.000000e+00 0.000000e+00
    outer loop
      vertex   -1.070000e+01 0.000000e+00 2.725000e+00
      vertex   -7.350000e+00 0.000000e+00 1.450000e+00
      vertex   -5.900000e+00 0.000000e+00 2.725000e+00
    endloop
  endfacet
  facet normal 0.000000e+00 -1.000000e+00 -0.000000e+00
    outer loop
      vertex   -5.900000e+00 0.000000e+00 2.725000e+00
      vertex   -7.350000e+00 0.000000e+00 1.450000e+00
      vertex   -5.900000e+00 0.000000e+00 1.450000e+00
    endloop
  endfacet
  facet normal 0.000000e+00 -1.000000e+00 -0.000000e+00
    outer loop
      vertex   -8.250000e+00 0.000000e+00 5.500000e-01
      vertex   -1.070000e+01 0.000000e+00 -3.025000e+00
      vertex   -8.250000e+00 0.000000e+00 -1.450000e+00
    endloop
  endfacet
  facet normal 0.000000e+00 -1.000000e+00 -0.000000e+00
    outer loop
      vertex   -8.250000e+00 0.000000e+00 -1.450000e+00
      vertex   -1.070000e+01 0.000000e+00 -3.025000e+00
      vertex   -5.900000e+00 0.000000e+00 -3.025000e+00
    endloop
  endfacet
  facet normal 0.000000e+00 -1.000000e+00 0.000000e+00
    outer loop
      vertex   -8.250000e+00 0.000000e+00 -1.450000e+00
      vertex   -5.900000e+00 0.000000e+00 -3.025000e+00
      vertex   -5.900000e+00 0.000000e+00 -1.450000e+00
    endloop
  endfacet
  facet normal 0.000000e+00 -1.000000e+00 -2.413528e-16
    outer loop
      vertex   -1.100000e+01 2.100000e-01 2.725000e+00
      vertex   -1.100000e+01 2.100000e-01 -3.025000e+00
      vertex   -1.050000e+01 2.100000e-01 2.725000e+00
    endloop
  endfacet
  facet normal 0.000000e+00 -1.000000e+00 -2.413528e-16
    outer loop
      vertex   -1.050000e+01 2.100000e-01 2.725000e+00
      vertex   -1.100000e+01 2.100000e-01 -3.025000e+00
      vertex   -1.050000e+01 2.100000e-01 -3.025000e+00
    endloop
  endfacet
  facet normal -0.000000e+00 1.000000e+00 2.510069e-16
    outer loop
      vertex   -1.100000e+01 3.900000e-01 -3.025000e+00
      vertex   -1.100000e+01 3.900000e-01 2.725000e+00
      vertex   -1.050000e+01 3.900000e-01 -3.025000e+00
    endloop
  endfacet
  facet normal 0.000000e+00 1.000000e+00 2.510069e-16
    outer loop
      vertex   -1.050000e+01 3.900000e-01 -3.025000e+00
      vertex   -1.100000e+01 3.900000e-01 2.725000e+00
      vertex   -1.050000e+01 3.900000e-01 2.725000e+00
    endloop
  endfacet
  facet normal 1.000000e+00 0.000000e+00 0.000000e+00
    outer loop
      vertex   -1.050000e+01 3.900000e-01 -3.025000e+00
      vertex   -1.050000e+01 3.900000e-01 2.725000e+00
      vertex   -1.050000e+01 2.100000e-01 -3.025000e+00
    endloop
  endfacet
  facet normal 1.000000e+00 0.000000e+00 -0.000000e+00
    outer loop
      vertex   -1.050000e+01 2.100000e-01 -3.025000e+00
      vertex   -1.050000e+01 3.900000e-01 2.725000e+00
      vertex   -1.050000e+01 2.100000e-01 2.725000e+00
    endloop
  endfacet
  facet normal 1.000000e+00 -0.000000e+00 0.000000e+00
    outer loop
      vertex   -1.100000e+01 3.900000e-01 2.725000e+00
      vertex   -1.100000e+01 3.900000e-01 -3.025000e+00
      vertex   -1.100000e+01 6.000000e-01 2.725000e+00
    endloop
  endfacet
  facet normal 1.000000e+00 0.000000e+00 0.000000e+00
    outer loop
      vertex   -1.100000e+01 6.000000e-01 2.725000e+00
      vertex   -1.100000e+01 3.900000e-01 -3.025000e+00
      vertex   -1.100000e+01 6.000000e-01 -3.025000e+00
    endloop
  endfacet
  facet normal 1.000000e+00 0.000000e+00 0.000000e+00
    outer loop
      vertex   -1.100000e+01 2.100000e-01 -3.025000e+00
      vertex   -1.100000e+01 2.100000e-01 2.725000e+00
      vertex   -1.100000e+01 0.000000e+00 -3.025000e+00
    endloop
  endfacet
  facet normal 1.000000e+00 0.000000e+00 0.000000e+00
    outer loop
      vertex   -1.100000e+01 0.000000e+00 -3.025000e+00
      vertex   -1.100000e+01 2.100000e-01 2.725000e+00
      vertex   -1.100000e+01 0.000000e+00 2.725000e+00
    endloop
  endfacet
  facet normal 0.000000e+00 -1.000000e+00 -0.000000e+00
    outer loop
      vertex   -1.100000e+01 0.000000e+00 2.725000e+00
      vertex   -1.245000e+01 0.000000e+00 5.500000e-01
      vertex   -1.100000e+01 0.000000e+00 -3.025000e+00
    endloop
  endfacet
  facet normal 0.000000e+00 -1.000000e+00 0.000000e+00
    outer loop
      vertex   -1.100000e+01 0.000000e+00 -3.025000e+00
      vertex   -1.245000e+01 0.000000e+00 5.500000e-01
      vertex   -1.245000e+01 0.000000e+00 -1.450000e+00
    endloop
  endfacet
  facet normal 0.000000e+00 -1.000000e+00 0.000000e+00
    outer loop
      vertex   -1.100000e+01 0.000000e+00 -3.025000e+00
      vertex   -1.245000e+01 0.000000e+00 -1.450000e+00
      vertex   -1.480000e+01 0.000000e+00 -3.025000e+00
    endloop
  endfacet
  facet normal 0.000000e+00 -1.000000e+00 0.000000e+00
    outer loop
      vertex   -1.480000e+01 0.000000e+00 -3.025000e+00
      vertex   -1.245000e+01 0.000000e+00 -1.450000e+00
      vertex   -1.480000e+01 0.000000e+00 -1.450000e+00
    endloop
  endfacet
  facet normal 0.000000e+00 -1.000000e+00 0.000000e+00
    outer loop
      vertex   -1.245000e+01 0.000000e+00 5.500000e-01
      vertex   -1.100000e+01 0.000000e+00 2.725000e+00
      vertex   -1.335000e+01 0.000000e+00 1.450000e+00
    endloop
  endfacet
  facet normal 0.000000e+00 -1.000000e+00 0.000000e+00
    outer loop
      vertex   -1.335000e+01 0.000000e+00 1.450000e+00
      vertex   -1.100000e+01 0.000000e+00 2.725000e+00
      vertex   -1.480000e+01 0.000000e+00 2.725000e+00
    endloop
  endfacet
  facet normal 0.000000e+00 -1.000000e+00 0.000000e+00
    outer loop
      vertex   -1.335000e+01 0.000000e+00 1.450000e+00
      vertex   -1.480000e+01 0.000000e+00 2.725000e+00
      vertex   -1.480000e+01 0.000000e+00 1.450000e+00
    endloop
  endfacet
  facet normal 0.000000e+00 -0.000000e+00 1.000000e+00
    outer loop
      vertex   -1.100000e+01 0.000000e+00 2.725000e+00
      vertex   -1.100000e+01 2.100000e-01 2.725000e+00
      vertex   -1.480000e+01 0.000000e+00 2.725000e+00
    endloop
  endfacet
  facet normal 0.000000e+00 0.000000e+00 1.000000e+00
    outer loop
      vertex   -1.480000e+01 0.000000e+00 2.725000e+00
      vertex   -1.100000e+01 2.100000e-01 2.725000e+00
      vertex   -1.100000e+01 3.900000e-01 2.725000e+00
    endloop
  endfacet
  facet normal 0.000000e+00 0.000000e+00 1.000000e+00
    outer loop
      vertex   -1.480000e+01 0.000000e+00 2.725000e+00
      vertex   -1.100000e+01 3.900000e-01 2.725000e+00
      vertex   -1.480000e+01 6.000000e-01 2.725000e+00
    endloop
  endfacet
  facet normal -0.000000e+00 0.000000e+00 1.000000e+00
    outer loop
      vertex   -1.480000e+01 6.000000e-01 2.725000e+00
      vertex   -1.100000e+01 3.900000e-01 2.725000e+00
      vertex   -1.100000e+01 6.000000e-01 2.725000e+00
    endloop
  endfacet
  facet normal 0.000000e+00 0.000000e+00 1.000000e+00
    outer loop
      vertex   -1.100000e+01 2.100000e-01 2.725000e+00
      vertex   -1.050000e+01 2.100000e-01 2.725000e+00
      vertex   -1.100000e+01 3.900000e-01 2.725000e+00
    endloop
  endfacet
  facet normal -0.000000e+00 0.000000e+00 1.000000e+00
    outer loop
      vertex   -1.100000e+01 3.900000e-01 2.725000e+00
      vertex   -1.050000e+01 2.100000e-01 2.725000e+00
      vertex   -1.050000e+01 3.900000e-01 2.725000e+00
    endloop
  endfacet
  facet normal 7.071068e-01 -0.000000e+00 7.071068e-01
    outer loop
      vertex   -1.245000e+01 -1.293103e+00 5.500000e-01
      vertex   -1.245000e+01 0.000000e+00 5.500000e-01
      vertex   -1.335000e+01 -1.200000e+00 1.450000e+00
    endloop
  endfacet
  facet normal 7.071068e-01 -0.000000e+00 7.071068e-01
    outer loop
      vertex   -1.335000e+01 -1.200000e+00 1.450000e+00
      vertex   -1.245000e+01 0.000000e+00 5.500000e-01
      vertex   -1.335000e+01 0.000000e+00 1.450000e+00
    endloop
  endfacet
  facet normal 1.000000e+00 0.000000e+00 -8.881784e-16
    outer loop
      vertex   -1.245000e+01 0.000000e+00 5.500000e-01
      vertex   -1.245000e+01 -1.293103e+00 5.500000e-01
      vertex   -1.245000e+01 0.000000e+00 -1.450000e+00
    endloop
  endfacet
  facet normal 1.000000e+00 0.000000e+00 -8.881784e-16
    outer loop
      vertex   -1.245000e+01 0.000000e+00 -1.450000e+00
      vertex   -1.245000e+01 -1.293103e+00 5.500000e-01
      vertex   -1.245000e+01 -1.500000e+00 -1.450000e+00
    endloop
  endfacet
  facet normal 8.321373e-17 -9.946918e-01 1.028992e-01
    outer loop
      vertex   -1.335000e+01 -1.200000e+00 1.450000e+00
      vertex   -1.593787e+01 -1.313640e+00 3.514804e-01
      vertex   -1.245000e+01 -1.293103e+00 5.500000e-01
    endloop
  endfacet
  facet normal 4.563553e-17 -9.946918e-01 1.028992e-01
    outer loop
      vertex   -1.245000e+01 -1.293103e+00 5.500000e-01
      vertex   -1.593787e+01 -1.313640e+00 3.514804e-01
      vertex   -1.591367e+01 -1.328076e+00 2.119295e-01
    endloop
  endfacet
  facet normal 2.730729e-16 -9.946918e-01 1.028992e-01
    outer loop
      vertex   -1.245000e+01 -1.293103e+00 5.500000e-01
      vertex   -1.591367e+01 -1.328076e+00 2.119295e-01
      vertex   -1.590152e+01 -1.342674e+00 7.081711e-02
    endloop
  endfacet
  facet normal 1.718447e-16 -9.946918e-01 1.028992e-01
    outer loop
      vertex   -1.676260e+01 -1.200000e+00 1.450000e+00
      vertex   -1.664115e+01 -1.207538e+00 1.377131e+00
      vertex   -1.335000e+01 -1.200000e+00 1.450000e+00
    endloop
  endfacet
  facet normal 9.345103e-17 -9.946918e-01 1.028992e-01
    outer loop
      vertex   -1.335000e+01 -1.200000e+00 1.450000e+00
      vertex   -1.664115e+01 -1.207538e+00 1.377131e+00
      vertex   -1.652639e+01 -1.216126e+00 1.294114e+00
    endloop
  endfacet
  facet normal 1.916040e-16 -9.946918e-01 1.028992e-01
    outer loop
      vertex   -1.335000e+01 -1.200000e+00 1.450000e+00
      vertex   -1.652639e+01 -1.216126e+00 1.294114e+00
      vertex   -1.641918e+01 -1.225700e+00 1.201562e+00
    endloop
  endfacet
  facet normal 1.618647e-16 -9.946918e-01 1.028992e-01
    outer loop
      vertex   -1.641918e+01 -1.225700e+00 1.201562e+00
      vertex   -1.632030e+01 -1.236191e+00 1.100157e+00
      vertex   -1.335000e+01 -1.200000e+00 1.450000e+00
    endloop
  endfacet
  facet normal 2.031693e-16 -9.946918e-01 1.028992e-01
    outer loop
      vertex   -1.335000e+01 -1.200000e+00 1.450000e+00
      vertex   -1.632030e+01 -1.236191e+00 1.100157e+00
      vertex   -1.623048e+01 -1.247519e+00 9.906449e-01
    endloop
  endfacet
  facet normal 7.303958e-16 -9.946918e-01 1.028992e-01
    outer loop
      vertex   -1.335000e+01 -1.200000e+00 1.450000e+00
      vertex   -1.623048e+01 -1.247519e+00 9.906449e-01
      vertex   -1.615039e+01 -1.259603e+00 8.738337e-01
    endloop
  endfacet
  facet normal -1.343321e-16 -9.946918e-01 1.028992e-01
    outer loop
      vertex   -1.615039e+01 -1.259603e+00 8.738337e-01
      vertex   -1.608060e+01 -1.272353e+00 7.505839e-01
      vertex   -1.335000e+01 -1.200000e+00 1.450000e+00
    endloop
  endfacet
  facet normal 8.783854e-17 -9.946918e-01 1.028992e-01
    outer loop
      vertex   -1.335000e+01 -1.200000e+00 1.450000e+00
      vertex   -1.608060e+01 -1.272353e+00 7.505839e-01
      vertex   -1.602165e+01 -1.285676e+00 6.218035e-01
    endloop
  endfacet
  facet normal 6.975349e-17 -9.946918e-01 1.028992e-01
    outer loop
      vertex   -1.335000e+01 -1.200000e+00 1.450000e+00
      vertex   -1.602165e+01 -1.285676e+00 6.218035e-01
      vertex   -1.597395e+01 -1.299472e+00 4.884414e-01
    endloop
  endfacet
  facet normal 8.757305e-17 -9.946918e-01 1.028992e-01
    outer loop
      vertex   -1.597395e+01 -1.299472e+00 4.884414e-01
      vertex   -1.593787e+01 -1.313640e+00 3.514804e-01
      vertex   -1.335000e+01 -1.200000e+00 1.450000e+00
    endloop
  endfacet
  facet normal 1.588374e-17 -9.946918e-01 1.028992e-01
    outer loop
      vertex   -1.590152e+01 -1.342674e+00 7.081711e-02
      vertex   -1.590152e+01 -1.357326e+00 -7.081711e-02
      vertex   -1.245000e+01 -1.293103e+00 5.500000e-01
    endloop
  endfacet
  facet normal 3.022727e-16 -9.946918e-01 1.028992e-01
    outer loop
      vertex   -1.245000e+01 -1.293103e+00 5.500000e-01
      vertex   -1.590152e+01 -1.357326e+00 -7.081711e-02
      vertex   -1.591367e+01 -1.371924e+00 -2.119295e-01
    endloop
  endfacet
  facet normal -2.078414e-16 -9.946918e-01 1.028992e-01
    outer loop
      vertex   -1.245000e+01 -1.293103e+00 5.500000e-01
      vertex   -1.591367e+01 -1.371924e+00 -2.119295e-01
      vertex   -1.593787e+01 -1.386360e+00 -3.514804e-01
    endloop
  endfacet
  facet normal 6.332401e-17 -9.946918e-01 1.028992e-01
    outer loop
      vertex   -1.245000e+01 -1.293103e+00 5.500000e-01
      vertex   -1.593787e+01 -1.386360e+00 -3.514804e-01
      vertex   -1.245000e+01 -1.500000e+00 -1.450000e+00
    endloop
  endfacet
  facet normal 5.336582e-17 -9.946918e-01 1.028992e-01
    outer loop
      vertex   -1.245000e+01 -1.500000e+00 -1.450000e+00
      vertex   -1.593787e+01 -1.386360e+00 -3.514804e-01
      vertex   -1.597395e+01 -1.400528e+00 -4.884414e-01
    endloop
  endfacet
  facet normal 1.873294e-16 -9.946918e-01 1.028992e-01
    outer loop
      vertex   -1.245000e+01 -1.500000e+00 -1.450000e+00
      vertex   -1.597395e+01 -1.400528e+00 -4.884414e-01
      vertex   -1.602165e+01 -1.414324e+00 -6.218035e-01
    endloop
  endfacet
  facet normal -1.288746e-16 -9.946918e-01 1.028992e-01
    outer loop
      vertex   -1.602165e+01 -1.414324e+00 -6.218035e-01
      vertex   -1.608060e+01 -1.427647e+00 -7.505839e-01
      vertex   -1.245000e+01 -1.500000e+00 -1.450000e+00
    endloop
  endfacet
  facet normal 1.390762e-17 -9.946918e-01 1.028992e-01
    outer loop
      vertex   -1.245000e+01 -1.500000e+00 -1.450000e+00
      vertex   -1.608060e+01 -1.427647e+00 -7.505839e-01
      vertex   -1.615039e+01 -1.440397e+00 -8.738337e-01
    endloop
  endfacet
  facet normal 3.174056e-16 -9.946918e-01 1.028992e-01
    outer loop
      vertex   -1.245000e+01 -1.500000e+00 -1.450000e+00
      vertex   -1.615039e+01 -1.440397e+00 -8.738337e-01
      vertex   -1.623048e+01 -1.452481e+00 -9.906449e-01
    endloop
  endfacet
  facet normal -8.338271e-17 -9.946918e-01 1.028992e-01
    outer loop
      vertex   -1.623048e+01 -1.452481e+00 -9.906449e-01
      vertex   -1.632030e+01 -1.463809e+00 -1.100157e+00
      vertex   -1.245000e+01 -1.500000e+00 -1.450000e+00
    endloop
  endfacet
  facet normal -1.212129e-17 -9.946918e-01 1.028992e-01
    outer loop
      vertex   -1.245000e+01 -1.500000e+00 -1.450000e+00
      vertex   -1.632030e+01 -1.463809e+00 -1.100157e+00
      vertex   -1.641918e+01 -1.474300e+00 -1.201562e+00
    endloop
  endfacet
  facet normal 2.408768e-17 -9.946918e-01 1.028992e-01
    outer loop
      vertex   -1.245000e+01 -1.500000e+00 -1.450000e+00
      vertex   -1.641918e+01 -1.474300e+00 -1.201562e+00
      vertex   -1.652639e+01 -1.483874e+00 -1.294114e+00
    endloop
  endfacet
  facet normal 1.495251e-16 -9.946918e-01 1.028992e-01
    outer loop
      vertex   -1.652639e+01 -1.483874e+00 -1.294114e+00
      vertex   -1.664115e+01 -1.492462e+00 -1.377131e+00
      vertex   -1.245000e+01 -1.500000e+00 -1.450000e+00
    endloop
  endfacet
  facet normal 1.017218e-15 -9.946918e-01 1.028992e-01
    outer loop
      vertex   -1.245000e+01 -1.500000e+00 -1.450000e+00
      vertex   -1.664115e+01 -1.492462e+00 -1.377131e+00
      vertex   -1.676260e+01 -1.500000e+00 -1.450000e+00
    endloop
  endfacet
  facet normal -5.144900e-01 0.000000e+00 8.574964e-01
    outer loop
      vertex   -1.676260e+01 -1.500000e+00 -1.450000e+00
      vertex   -1.664115e+01 -1.492462e+00 -1.377131e+00
      vertex   -1.676260e+01 0.000000e+00 -1.450000e+00
    endloop
  endfacet
  facet normal -5.144900e-01 0.000000e+00 8.574964e-01
    outer loop
      vertex   -1.676260e+01 0.000000e+00 -1.450000e+00
      vertex   -1.664115e+01 -1.492462e+00 -1.377131e+00
      vertex   -1.664115e+01 0.000000e+00 -1.377131e+00
    endloop
  endfacet
  facet normal -5.861332e-01 0.000000e+00 8.102147e-01
    outer loop
      vertex   -1.664115e+01 0.000000e+00 -1.377131e+00
      vertex   -1.664115e+01 -1.492462e+00 -1.377131e+00
      vertex   -1.652639e+01 -1.483874e+00 -1.294114e+00
    endloop
  endfacet
  facet normal -5.861332e-01 -1.403182e-15 8.102147e-01
    outer loop
      vertex   -1.664115e+01 0.000000e+00 -1.377131e+00
      vertex   -1.652639e+01 -1.483874e+00 -1.294114e+00
      vertex   -1.652639e+01 0.000000e+00 -1.294114e+00
    endloop
  endfacet
  facet normal -6.534577e-01 -1.564519e-15 7.569630e-01
    outer loop
      vertex   -1.652639e+01 0.000000e+00 -1.294114e+00
      vertex   -1.652639e+01 -1.483874e+00 -1.294114e+00
      vertex   -1.641918e+01 -1.474300e+00 -1.201562e+00
    endloop
  endfacet
  facet normal -6.534577e-01 -1.005221e-15 7.569630e-01
    outer loop
      vertex   -1.652639e+01 0.000000e+00 -1.294114e+00
      vertex   -1.641918e+01 -1.474300e+00 -1.201562e+00
      vertex   -1.641918e+01 0.000000e+00 -1.201562e+00
    endloop
  endfacet
  facet normal -7.159673e-01 -1.199582e-15 6.981338e-01
    outer loop
      vertex   -1.641918e+01 0.000000e+00 -1.201562e+00
      vertex   -1.641918e+01 -1.474300e+00 -1.201562e+00
      vertex   -1.632030e+01 -1.463809e+00 -1.100157e+00
    endloop
  endfacet
  facet normal -7.159673e-01 5.354976e-16 6.981338e-01
    outer loop
      vertex   -1.641918e+01 0.000000e+00 -1.201562e+00
      vertex   -1.632030e+01 -1.463809e+00 -1.100157e+00
      vertex   -1.632030e+01 0.000000e+00 -1.100157e+00
    endloop
  endfacet
  facet normal -7.732014e-01 4.809777e-16 6.341606e-01
    outer loop
      vertex   -1.632030e+01 0.000000e+00 -1.100157e+00
      vertex   -1.632030e+01 -1.463809e+00 -1.100157e+00
      vertex   -1.623048e+01 -1.452481e+00 -9.906449e-01
    endloop
  endfacet
  facet normal -7.732014e-01 5.312419e-16 6.341606e-01
    outer loop
      vertex   -1.632030e+01 0.000000e+00 -1.100157e+00
      vertex   -1.623048e+01 -1.452481e+00 -9.906449e-01
      vertex   -1.623048e+01 0.000000e+00 -9.906449e-01
    endloop
  endfacet
  facet normal -8.247383e-01 4.754846e-16 5.655146e-01
    outer loop
      vertex   -1.623048e+01 0.000000e+00 -9.906449e-01
      vertex   -1.623048e+01 -1.452481e+00 -9.906449e-01
      vertex   -1.615039e+01 -1.440397e+00 -8.738337e-01
    endloop
  endfacet
  facet normal -8.247383e-01 7.397743e-16 5.655146e-01
    outer loop
      vertex   -1.623048e+01 0.000000e+00 -9.906449e-01
      vertex   -1.615039e+01 -1.440397e+00 -8.738337e-01
      vertex   -1.615039e+01 0.000000e+00 -8.738337e-01
    endloop
  endfacet
  facet normal -8.701982e-01 6.455965e-16 4.927018e-01
    outer loop
      vertex   -1.615039e+01 0.000000e+00 -8.738337e-01
      vertex   -1.615039e+01 -1.440397e+00 -8.738337e-01
      vertex   -1.608060e+01 -1.427647e+00 -7.505839e-01
    endloop
  endfacet
  facet normal -8.701982e-01 7.292228e-16 4.927018e-01
    outer loop
      vertex   -1.615039e+01 0.000000e+00 -8.738337e-01
      vertex   -1.608060e+01 -1.427647e+00 -7.505839e-01
      vertex   -1.608060e+01 0.000000e+00 -7.505839e-01
    endloop
  endfacet
  facet normal -9.092463e-01 6.150441e-16 4.162585e-01
    outer loop
      vertex   -1.608060e+01 0.000000e+00 -7.505839e-01
      vertex   -1.608060e+01 -1.427647e+00 -7.505839e-01
      vertex   -1.602165e+01 -1.414324e+00 -6.218035e-01
    endloop
  endfacet
  facet normal -9.092463e-01 -1.563112e-15 4.162585e-01
    outer loop
      vertex   -1.608060e+01 0.000000e+00 -7.505839e-01
      vertex   -1.602165e+01 -1.414324e+00 -6.218035e-01
      vertex   -1.602165e+01 0.000000e+00 -6.218035e-01
    endloop
  endfacet
  facet normal -9.415948e-01 -1.783687e-15 3.367481e-01
    outer loop
      vertex   -1.602165e+01 0.000000e+00 -6.218035e-01
      vertex   -1.602165e+01 -1.414324e+00 -6.218035e-01
      vertex   -1.597395e+01 -1.400528e+00 -4.884414e-01
    endloop
  endfacet
  facet normal -9.415948e-01 -6.077919e-16 3.367481e-01
    outer loop
      vertex   -1.602165e+01 0.000000e+00 -6.218035e-01
      vertex   -1.597395e+01 -1.400528e+00 -4.884414e-01
      vertex   -1.597395e+01 0.000000e+00 -4.884414e-01
    endloop
  endfacet
  facet normal -9.670052e-01 -7.822090e-16 2.547565e-01
    outer loop
      vertex   -1.597395e+01 0.000000e+00 -4.884414e-01
      vertex   -1.597395e+01 -1.400528e+00 -4.884414e-01
      vertex   -1.593787e+01 -1.386360e+00 -3.514804e-01
    endloop
  endfacet
  facet normal -9.670052e-01 5.389095e-16 2.547565e-01
    outer loop
      vertex   -1.597395e+01 0.000000e+00 -4.884414e-01
      vertex   -1.593787e+01 -1.386360e+00 -3.514804e-01
      vertex   -1.593787e+01 0.000000e+00 -3.514804e-01
    endloop
  endfacet
  facet normal -9.852905e-01 3.626528e-16 1.708877e-01
    outer loop
      vertex   -1.593787e+01 0.000000e+00 -3.514804e-01
      vertex   -1.593787e+01 -1.386360e+00 -3.514804e-01
      vertex   -1.591367e+01 -1.371924e+00 -2.119295e-01
    endloop
  endfacet
  facet normal -9.852905e-01 4.486092e-16 1.708877e-01
    outer loop
      vertex   -1.593787e+01 0.000000e+00 -3.514804e-01
      vertex   -1.591367e+01 -1.371924e+00 -2.119295e-01
      vertex   -1.591367e+01 0.000000e+00 -2.119295e-01
    endloop
  endfacet
  facet normal -9.963158e-01 2.255524e-16 8.575983e-02
    outer loop
      vertex   -1.591367e+01 0.000000e+00 -2.119295e-01
      vertex   -1.591367e+01 -1.371924e+00 -2.119295e-01
      vertex   -1.590152e+01 -1.357326e+00 -7.081711e-02
    endloop
  endfacet
  facet normal -9.963158e-01 2.301008e-16 8.575983e-02
    outer loop
      vertex   -1.591367e+01 0.000000e+00 -2.119295e-01
      vertex   -1.590152e+01 -1.357326e+00 -7.081711e-02
      vertex   -1.590152e+01 0.000000e+00 -7.081711e-02
    endloop
  endfacet
  facet normal -1.000000e+00 0.000000e+00 0.000000e+00
    outer loop
      vertex   -1.590152e+01 0.000000e+00 -7.081711e-02
      vertex   -1.590152e+01 -1.357326e+00 -7.081711e-02
      vertex   -1.590152e+01 -1.342674e+00 7.081711e-02
    endloop
  endfacet
  facet normal -1.000000e+00 0.000000e+00 0.000000e+00
    outer loop
      vertex   -1.590152e+01 0.000000e+00 -7.081711e-02
      vertex   -1.590152e+01 -1.342674e+00 7.081711e-02
      vertex   -1.590152e+01 0.000000e+00 7.081711e-02
    endloop
  endfacet
  facet normal -9.963158e-01 -2.322388e-16 -8.575983e-02
    outer loop
      vertex   -1.590152e+01 0.000000e+00 7.081711e-02
      vertex   -1.590152e+01 -1.342674e+00 7.081711e-02
      vertex   -1.591367e+01 -1.328076e+00 2.119295e-01
    endloop
  endfacet
  facet normal -9.963158e-01 -2.801272e-16 -8.575983e-02
    outer loop
      vertex   -1.590152e+01 0.000000e+00 7.081711e-02
      vertex   -1.591367e+01 -1.328076e+00 2.119295e-01
      vertex   -1.591367e+01 0.000000e+00 2.119295e-01
    endloop
  endfacet
  facet normal -9.852905e-01 -5.535666e-16 -1.708877e-01
    outer loop
      vertex   -1.591367e+01 0.000000e+00 2.119295e-01
      vertex   -1.591367e+01 -1.328076e+00 2.119295e-01
      vertex   -1.593787e+01 -1.313640e+00 3.514804e-01
    endloop
  endfacet
  facet normal -9.852905e-01 -5.990442e-16 -1.708877e-01
    outer loop
      vertex   -1.591367e+01 0.000000e+00 2.119295e-01
      vertex   -1.593787e+01 -1.313640e+00 3.514804e-01
      vertex   -1.593787e+01 0.000000e+00 3.514804e-01
    endloop
  endfacet
  facet normal -9.670052e-01 -8.935261e-16 -2.547565e-01
    outer loop
      vertex   -1.593787e+01 0.000000e+00 3.514804e-01
      vertex   -1.593787e+01 -1.313640e+00 3.514804e-01
      vertex   -1.597395e+01 -1.299472e+00 4.884414e-01
    endloop
  endfacet
  facet normal -9.670052e-01 4.524145e-16 -2.547565e-01
    outer loop
      vertex   -1.593787e+01 0.000000e+00 3.514804e-01
      vertex   -1.597395e+01 -1.299472e+00 4.884414e-01
      vertex   -1.597395e+01 0.000000e+00 4.884414e-01
    endloop
  endfacet
  facet normal -9.415948e-01 1.363217e-16 -3.367481e-01
    outer loop
      vertex   -1.597395e+01 0.000000e+00 4.884414e-01
      vertex   -1.597395e+01 -1.299472e+00 4.884414e-01
      vertex   -1.602165e+01 -1.285676e+00 6.218035e-01
    endloop
  endfacet
  facet normal -9.415948e-01 -1.247964e-15 -3.367481e-01
    outer loop
      vertex   -1.597395e+01 0.000000e+00 4.884414e-01
      vertex   -1.602165e+01 -1.285676e+00 6.218035e-01
      vertex   -1.602165e+01 0.000000e+00 6.218035e-01
    endloop
  endfacet
  facet normal -9.092463e-01 -1.545647e-15 -4.162585e-01
    outer loop
      vertex   -1.602165e+01 0.000000e+00 6.218035e-01
      vertex   -1.602165e+01 -1.285676e+00 6.218035e-01
      vertex   -1.608060e+01 -1.272353e+00 7.505839e-01
    endloop
  endfacet
  facet normal -9.092463e-01 9.433663e-16 -4.162585e-01
    outer loop
      vertex   -1.602165e+01 0.000000e+00 6.218035e-01
      vertex   -1.608060e+01 -1.272353e+00 7.505839e-01
      vertex   -1.608060e+01 0.000000e+00 7.505839e-01
    endloop
  endfacet
  facet normal -8.701982e-01 5.381574e-16 -4.927018e-01
    outer loop
      vertex   -1.608060e+01 0.000000e+00 7.505839e-01
      vertex   -1.608060e+01 -1.272353e+00 7.505839e-01
      vertex   -1.615039e+01 -1.259603e+00 8.738337e-01
    endloop
  endfacet
  facet normal -8.701982e-01 5.445230e-16 -4.927018e-01
    outer loop
      vertex   -1.608060e+01 0.000000e+00 7.505839e-01
      vertex   -1.615039e+01 -1.259603e+00 8.738337e-01
      vertex   -1.615039e+01 0.000000e+00 8.738337e-01
    endloop
  endfacet
  facet normal -8.247383e-01 1.330027e-16 -5.655146e-01
    outer loop
      vertex   -1.615039e+01 0.000000e+00 8.738337e-01
      vertex   -1.615039e+01 -1.259603e+00 8.738337e-01
      vertex   -1.623048e+01 -1.247519e+00 9.906449e-01
    endloop
  endfacet
  facet normal -8.247383e-01 7.854250e-17 -5.655146e-01
    outer loop
      vertex   -1.615039e+01 0.000000e+00 8.738337e-01
      vertex   -1.623048e+01 -1.247519e+00 9.906449e-01
      vertex   -1.623048e+01 0.000000e+00 9.906449e-01
    endloop
  endfacet
  facet normal -7.732014e-01 -3.377145e-16 -6.341606e-01
    outer loop
      vertex   -1.623048e+01 0.000000e+00 9.906449e-01
      vertex   -1.623048e+01 -1.247519e+00 9.906449e-01
      vertex   -1.632030e+01 -1.236191e+00 1.100157e+00
    endloop
  endfacet
  facet normal -7.732014e-01 -1.684323e-16 -6.341606e-01
    outer loop
      vertex   -1.623048e+01 0.000000e+00 9.906449e-01
      vertex   -1.632030e+01 -1.236191e+00 1.100157e+00
      vertex   -1.632030e+01 0.000000e+00 1.100157e+00
    endloop
  endfacet
  facet normal -7.159673e-01 -5.757422e-16 -6.981338e-01
    outer loop
      vertex   -1.632030e+01 0.000000e+00 1.100157e+00
      vertex   -1.632030e+01 -1.236191e+00 1.100157e+00
      vertex   -1.641918e+01 -1.225700e+00 1.201562e+00
    endloop
  endfacet
  facet normal -7.159673e-01 1.498887e-15 -6.981338e-01
    outer loop
      vertex   -1.632030e+01 0.000000e+00 1.100157e+00
      vertex   -1.641918e+01 -1.225700e+00 1.201562e+00
      vertex   -1.641918e+01 0.000000e+00 1.201562e+00
    endloop
  endfacet
  facet normal -6.534577e-01 9.083994e-16 -7.569630e-01
    outer loop
      vertex   -1.641918e+01 0.000000e+00 1.201562e+00
      vertex   -1.641918e+01 -1.225700e+00 1.201562e+00
      vertex   -1.652639e+01 -1.216126e+00 1.294114e+00
    endloop
  endfacet
  facet normal -6.534577e-01 1.057481e-15 -7.569630e-01
    outer loop
      vertex   -1.641918e+01 0.000000e+00 1.201562e+00
      vertex   -1.652639e+01 -1.216126e+00 1.294114e+00
      vertex   -1.652639e+01 0.000000e+00 1.294114e+00
    endloop
  endfacet
  facet normal -5.861332e-01 4.659478e-16 -8.102147e-01
    outer loop
      vertex   -1.652639e+01 0.000000e+00 1.294114e+00
      vertex   -1.652639e+01 -1.216126e+00 1.294114e+00
      vertex   -1.664115e+01 -1.207538e+00 1.377131e+00
    endloop
  endfacet
  facet normal -5.861332e-01 4.665724e-16 -8.102147e-01
    outer loop
      vertex   -1.652639e+01 0.000000e+00 1.294114e+00
      vertex   -1.664115e+01 -1.207538e+00 1.377131e+00
      vertex   -1.664115e+01 0.000000e+00 1.377131e+00
    endloop
  endfacet
  facet normal -5.144900e-01 -1.261889e-16 -8.574964e-01
    outer loop
      vertex   -1.664115e+01 0.000000e+00 1.377131e+00
      vertex   -1.664115e+01 -1.207538e+00 1.377131e+00
      vertex   -1.676260e+01 -1.200000e+00 1.450000e+00
    endloop
  endfacet
  facet normal -5.144900e-01 -1.020659e-15 -8.574964e-01
    outer loop
      vertex   -1.664115e+01 0.000000e+00 1.377131e+00
      vertex   -1.676260e+01 -1.200000e+00 1.450000e+00
      vertex   -1.676260e+01 0.000000e+00 1.450000e+00
    endloop
  endfacet
  facet normal 0.000000e+00 0.000000e+00 1.000000e+00
    outer loop
      vertex   -1.335000e+01 0.000000e+00 1.450000e+00
      vertex   -1.480000e+01 0.000000e+00 1.450000e+00
      vertex   -1.335000e+01 -1.200000e+00 1.450000e+00
    endloop
  endfacet
  facet normal 1.041058e-15 1.257945e-15 1.000000e+00
    outer loop
      vertex   -1.335000e+01 -1.200000e+00 1.450000e+00
      vertex   -1.480000e+01 0.000000e+00 1.450000e+00
      vertex   -1.676260e+01 -1.200000e+00 1.450000e+00
    endloop
  endfacet
  facet normal 0.000000e+00 2.960595e-15 1.000000e+00
    outer loop
      vertex   -1.676260e+01 -1.200000e+00 1.450000e+00
      vertex   -1.480000e+01 0.000000e+00 1.450000e+00
      vertex   -1.676260e+01 0.000000e+00 1.450000e+00
    endloop
  endfacet
  facet normal 0.000000e+00 0.000000e+00 -1.000000e+00
    outer loop
      vertex   -1.676260e+01 0.000000e+00 -1.450000e+00
      vertex   -1.480000e+01 0.000000e+00 -1.450000e+00
      vertex   -1.676260e+01 -1.500000e+00 -1.450000e+00
    endloop
  endfacet
  facet normal -9.885585e-15 1.293429e-14 -1.000000e+00
    outer loop
      vertex   -1.676260e+01 -1.500000e+00 -1.450000e+00
      vertex   -1.480000e+01 0.000000e+00 -1.450000e+00
      vertex   -1.245000e+01 -1.500000e+00 -1.450000e+00
    endloop
  endfacet
  facet normal -1.814152e-14 0.000000e+00 -1.000000e+00
    outer loop
      vertex   -1.245000e+01 -1.500000e+00 -1.450000e+00
      vertex   -1.480000e+01 0.000000e+00 -1.450000e+00
      vertex   -1.245000e+01 0.000000e+00 -1.450000e+00
    endloop
  endfacet
  facet normal 0.000000e+00 1.000000e+00 -0.000000e+00
    outer loop
      vertex   -1.480000e+01 0.000000e+00 -1.450000e+00
      vertex   -1.590152e+01 0.000000e+00 -7.081711e-02
      vertex   -1.480000e+01 0.000000e+00 1.450000e+00
    endloop
  endfacet
  facet normal 0.000000e+00 1.000000e+00 0.000000e+00
    outer loop
      vertex   -1.480000e+01 0.000000e+00 1.450000e+00
      vertex   -1.590152e+01 0.000000e+00 -7.081711e-02
      vertex   -1.590152e+01 0.000000e+00 7.081711e-02
    endloop
  endfacet
  facet normal 0.000000e+00 1.000000e+00 0.000000e+00
    outer loop
      vertex   -1.480000e+01 0.000000e+00 1.450000e+00
      vertex   -1.590152e+01 0.000000e+00 7.081711e-02
      vertex   -1.591367e+01 0.000000e+00 2.119295e-01
    endloop
  endfacet
  facet normal 0.000000e+00 1.000000e+00 0.000000e+00
    outer loop
      vertex   -1.676260e+01 0.000000e+00 -1.450000e+00
      vertex   -1.664115e+01 0.000000e+00 -1.377131e+00
      vertex   -1.480000e+01 0.000000e+00 -1.450000e+00
    endloop
  endfacet
  facet normal 0.000000e+00 1.000000e+00 0.000000e+00
    outer loop
      vertex   -1.480000e+01 0.000000e+00 -1.450000e+00
      vertex   -1.664115e+01 0.000000e+00 -1.377131e+00
      vertex   -1.652639e+01 0.000000e+00 -1.294114e+00
    endloop
  endfacet
  facet normal 0.000000e+00 1.000000e+00 0.000000e+00
    outer loop
      vertex   -1.480000e+01 0.000000e+00 -1.450000e+00
      vertex   -1.652639e+01 0.000000e+00 -1.294114e+00
      vertex   -1.641918e+01 0.000000e+00 -1.201562e+00
    endloop
  endfacet
  facet normal -0.000000e+00 1.000000e+00 0.000000e+00
    outer loop
      vertex   -1.641918e+01 0.000000e+00 -1.201562e+00
      vertex   -1.632030e+01 0.000000e+00 -1.100157e+00
      vertex   -1.480000e+01 0.000000e+00 -1.450000e+00
    endloop
  endfacet
  facet normal 0.000000e+00 1.000000e+00 0.000000e+00
    outer loop
      vertex   -1.480000e+01 0.000000e+00 -1.450000e+00
      vertex   -1.632030e+01 0.000000e+00 -1.100157e+00
      vertex   -1.623048e+01 0.000000e+00 -9.906449e-01
    endloop
  endfacet
  facet normal 0.000000e+00 1.000000e+00 0.000000e+00
    outer loop
      vertex   -1.480000e+01 0.000000e+00 -1.450000e+00
      vertex   -1.623048e+01 0.000000e+00 -9.906449e-01
      vertex   -1.615039e+01 0.000000e+00 -8.738337e-01
    endloop
  endfacet
  facet normal -0.000000e+00 1.000000e+00 0.000000e+00
    outer loop
      vertex   -1.615039e+01 0.000000e+00 -8.738337e-01
      vertex   -1.608060e+01 0.000000e+00 -7.505839e-01
      vertex   -1.480000e+01 0.000000e+00 -1.450000e+00
    endloop
  endfacet
  facet normal 0.000000e+00 1.000000e+00 0.000000e+00
    outer loop
      vertex   -1.480000e+01 0.000000e+00 -1.450000e+00
      vertex   -1.608060e+01 0.000000e+00 -7.505839e-01
      vertex   -1.602165e+01 0.000000e+00 -6.218035e-01
    endloop
  endfacet
  facet normal 0.000000e+00 1.000000e+00 0.000000e+00
    outer loop
      vertex   -1.480000e+01 0.000000e+00 -1.450000e+00
      vertex   -1.602165e+01 0.000000e+00 -6.218035e-01
      vertex   -1.597395e+01 0.000000e+00 -4.884414e-01
    endloop
  endfacet
  facet normal -0.000000e+00 1.000000e+00 0.000000e+00
    outer loop
      vertex   -1.597395e+01 0.000000e+00 -4.884414e-01
      vertex   -1.593787e+01 0.000000e+00 -3.514804e-01
      vertex   -1.480000e+01 0.000000e+00 -1.450000e+00
    endloop
  endfacet
  facet normal 0.000000e+00 1.000000e+00 0.000000e+00
    outer loop
      vertex   -1.480000e+01 0.000000e+00 -1.450000e+00
      vertex   -1.593787e+01 0.000000e+00 -3.514804e-01
      vertex   -1.591367e+01 0.000000e+00 -2.119295e-01
    endloop
  endfacet
  facet normal 0.000000e+00 1.000000e+00 0.000000e+00
    outer loop
      vertex   -1.480000e+01 0.000000e+00 -1.450000e+00
      vertex   -1.591367e+01 0.000000e+00 -2.119295e-01
      vertex   -1.590152e+01 0.000000e+00 -7.081711e-02
    endloop
  endfacet
  facet normal 0.000000e+00 1.000000e+00 -0.000000e+00
    outer loop
      vertex   -1.591367e+01 0.000000e+00 2.119295e-01
      vertex   -1.593787e+01 0.000000e+00 3.514804e-01
      vertex   -1.480000e+01 0.000000e+00 1.450000e+00
    endloop
  endfacet
  facet normal 0.000000e+00 1.000000e+00 0.000000e+00
    outer loop
      vertex   -1.480000e+01 0.000000e+00 1.450000e+00
      vertex   -1.593787e+01 0.000000e+00 3.514804e-01
      vertex   -1.597395e+01 0.000000e+00 4.884414e-01
    endloop
  endfacet
  facet normal 0.000000e+00 1.000000e+00 0.000000e+00
    outer loop
      vertex   -1.480000e+01 0.000000e+00 1.450000e+00
      vertex   -1.597395e+01 0.000000e+00 4.884414e-01
      vertex   -1.602165e+01 0.000000e+00 6.218035e-01
    endloop
  endfacet
  facet normal 0.000000e+00 1.000000e+00 -0.000000e+00
    outer loop
      vertex   -1.602165e+01 0.000000e+00 6.218035e-01
      vertex   -1.608060e+01 0.000000e+00 7.505839e-01
      vertex   -1.480000e+01 0.000000e+00 1.450000e+00
    endloop
  endfacet
  facet normal 0.000000e+00 1.000000e+00 0.000000e+00
    outer loop
      vertex   -1.480000e+01 0.000000e+00 1.450000e+00
      vertex   -1.608060e+01 0.000000e+00 7.505839e-01
      vertex   -1.615039e+01 0.000000e+00 8.738337e-01
    endloop
  endfacet
  facet normal 0.000000e+00 1.000000e+00 0.000000e+00
    outer loop
      vertex   -1.480000e+01 0.000000e+00 1.450000e+00
      vertex   -1.615039e+01 0.000000e+00 8.738337e-01
      vertex   -1.623048e+01 0.000000e+00 9.906449e-01
    endloop
  endfacet
  facet normal 0.000000e+00 1.000000e+00 -0.000000e+00
    outer loop
      vertex   -1.623048e+01 0.000000e+00 9.906449e-01
      vertex   -1.632030e+01 0.000000e+00 1.100157e+00
      vertex   -1.480000e+01 0.000000e+00 1.450000e+00
    endloop
  endfacet
  facet normal 0.000000e+00 1.000000e+00 0.000000e+00
    outer loop
      vertex   -1.480000e+01 0.000000e+00 1.450000e+00
      vertex   -1.632030e+01 0.000000e+00 1.100157e+00
      vertex   -1.641918e+01 0.000000e+00 1.201562e+00
    endloop
  endfacet
  facet normal 0.000000e+00 1.000000e+00 0.000000e+00
    outer loop
      vertex   -1.480000e+01 0.000000e+00 1.450000e+00
      vertex   -1.641918e+01 0.000000e+00 1.201562e+00
      vertex   -1.652639e+01 0.000000e+00 1.294114e+00
    endloop
  endfacet
  facet normal 0.000000e+00 1.000000e+00 -0.000000e+00
    outer loop
      vertex   -1.652639e+01 0.000000e+00 1.294114e+00
      vertex   -1.664115e+01 0.000000e+00 1.377131e+00
      vertex   -1.480000e+01 0.000000e+00 1.450000e+00
    endloop
  endfacet
  facet normal 0.000000e+00 1.000000e+00 0.000000e+00
    outer loop
      vertex   -1.480000e+01 0.000000e+00 1.450000e+00
      vertex   -1.664115e+01 0.000000e+00 1.377131e+00
      vertex   -1.676260e+01 0.000000e+00 1.450000e+00
    endloop
  endfacet
  facet normal -1.000000e+00 0.000000e+00 0.000000e+00
    outer loop
      vertex   -1.480000e+01 0.000000e+00 2.725000e+00
      vertex   -1.480000e+01 6.000000e-01 2.725000e+00
      vertex   -1.480000e+01 0.000000e+00 1.450000e+00
    endloop
  endfacet
  facet normal -1.000000e+00 0.000000e+00 0.000000e+00
    outer loop
      vertex   -1.480000e+01 0.000000e+00 1.450000e+00
      vertex   -1.480000e+01 6.000000e-01 2.725000e+00
      vertex   -1.480000e+01 0.000000e+00 -1.450000e+00
    endloop
  endfacet
  facet normal -1.000000e+00 0.000000e+00 0.000000e+00
    outer loop
      vertex   -1.480000e+01 0.000000e+00 -1.450000e+00
      vertex   -1.480000e+01 6.000000e-01 2.725000e+00
      vertex   -1.480000e+01 6.000000e-01 -3.025000e+00
    endloop
  endfacet
  facet normal -1.000000e+00 0.000000e+00 0.000000e+00
    outer loop
      vertex   -1.480000e+01 0.000000e+00 -1.450000e+00
      vertex   -1.480000e+01 6.000000e-01 -3.025000e+00
      vertex   -1.480000e+01 0.000000e+00 -3.025000e+00
    endloop
  endfacet
  facet normal -0.000000e+00 -0.000000e+00 -1.000000e+00
    outer loop
      vertex   -1.100000e+01 6.000000e-01 -3.025000e+00
      vertex   -1.100000e+01 3.900000e-01 -3.025000e+00
      vertex   -1.480000e+01 6.000000e-01 -3.025000e+00
    endloop
  endfacet
  facet normal 0.000000e+00 0.000000e+00 -1.000000e+00
    outer loop
      vertex   -1.480000e+01 6.000000e-01 -3.025000e+00
      vertex   -1.100000e+01 3.900000e-01 -3.025000e+00
      vertex   -1.480000e+01 0.000000e+00 -3.025000e+00
    endloop
  endfacet
  facet normal 0.000000e+00 0.000000e+00 -1.000000e+00
    outer loop
      vertex   -1.480000e+01 0.000000e+00 -3.025000e+00
      vertex   -1.100000e+01 3.900000e-01 -3.025000e+00
      vertex   -1.100000e+01 2.100000e-01 -3.025000e+00
    endloop
  endfacet
  facet normal 0.000000e+00 0.000000e+00 -1.000000e+00
    outer loop
      vertex   -1.480000e+01 0.000000e+00 -3.025000e+00
      vertex   -1.100000e+01 2.100000e-01 -3.025000e+00
      vertex   -1.100000e+01 0.000000e+00 -3.025000e+00
    endloop
  endfacet
  facet normal 0.000000e+00 0.000000e+00 -1.000000e+00
    outer loop
      vertex   -1.100000e+01 3.900000e-01 -3.025000e+00
      vertex   -1.050000e+01 3.900000e-01 -3.025000e+00
      vertex   -1.100000e+01 2.100000e-01 -3.025000e+00
    endloop
  endfacet
  facet normal 0.000000e+00 0.000000e+00 -1.000000e+00
    outer loop
      vertex   -1.100000e+01 2.100000e-01 -3.025000e+00
      vertex   -1.050000e+01 3.900000e-01 -3.025000e+00
      vertex   -1.050000e+01 2.100000e-01 -3.025000e+00
    endloop
  endfacet
  facet normal 0.000000e+00 1.000000e+00 0.000000e+00
    outer loop
      vertex   -1.100000e+01 6.000000e-01 2.725000e+00
      vertex   -1.100000e+01 6.000000e-01 -3.025000e+00
      vertex   -1.480000e+01 6.000000e-01 2.725000e+00
    endloop
  endfacet
  facet normal 0.000000e+00 1.000000e+00 0.000000e+00
    outer loop
      vertex   -1.480000e+01 6.000000e-01 2.725000e+00
      vertex   -1.100000e+01 6.000000e-01 -3.025000e+00
      vertex   -1.480000e+01 6.000000e-01 -3.025000e+00
    endloop
  endfacet
endsolid
